<svg width="16" height="16" viewBox="0 0 16 16" fill="none" xmlns="http://www.w3.org/2000/svg">
  <g clip-path="url(#clip0_8_15)">
    <rect width="16" height="16" fill="#F3AE00"/>
    <rect x="1" y="1" width="14" height="14" fill="black"/>
    <path d="M2.81413 8.00441V7.43956L5.66698 3.62146L5.77423 3.74301H3.00003V2.99941H6.62508V3.55711L3.78653 7.38236L3.67213 7.26081H6.70373V8.00441H2.81413ZM6.88377 8.00441V7.43956L9.73662 3.62146L9.84387 3.74301H7.06967V2.99941H10.6947V3.55711L7.85617 7.38236L7.74177 7.26081H10.7734V8.00441H6.88377Z" fill="white"/>
    <rect x="3" y="12" width="5" height="1" fill="white"/>
    <rect x="4" y="10" width="12" height="6" rx="1.5" fill="#FDB60D"/>
    <path d="M5.74244 14.5V11.35H7.93844V12.0025H6.48494V13.8475H7.98344V14.5H5.74244ZM6.10244 13.2085V12.5875H7.73594V13.2085H6.10244ZM8.33233 14.5L9.57883 11.35H10.2268L11.4643 14.5H10.6903L10.0963 12.9025C10.0723 12.8395 10.0483 12.772 10.0243 12.7C10.0003 12.628 9.97633 12.5545 9.95233 12.4795C9.92833 12.4015 9.90433 12.3265 9.88033 12.2545C9.85933 12.1795 9.84133 12.1105 9.82633 12.0475L9.96133 12.043C9.94333 12.118 9.92233 12.1915 9.89833 12.2635C9.87733 12.3355 9.85483 12.4075 9.83083 12.4795C9.80983 12.5485 9.78583 12.619 9.75883 12.691C9.73183 12.76 9.70633 12.832 9.68233 12.907L9.08833 14.5H8.33233ZM8.92633 13.897L9.16483 13.321H10.6138L10.8478 13.897H8.92633ZM11.9473 14.5V11.35H13.3063C13.5043 11.35 13.6798 11.395 13.8328 11.485C13.9888 11.575 14.1118 11.698 14.2018 11.854C14.2948 12.01 14.3413 12.1855 14.3413 12.3805C14.3413 12.5845 14.2948 12.7675 14.2018 12.9295C14.1118 13.0885 13.9888 13.2145 13.8328 13.3075C13.6798 13.4005 13.5043 13.447 13.3063 13.447H12.7123V14.5H11.9473ZM12.6988 12.7765H13.1983C13.2643 12.7765 13.3243 12.76 13.3783 12.727C13.4323 12.694 13.4758 12.649 13.5088 12.592C13.5418 12.535 13.5583 12.469 13.5583 12.394C13.5583 12.316 13.5418 12.25 13.5088 12.196C13.4758 12.142 13.4323 12.1 13.3783 12.07C13.3243 12.04 13.2643 12.025 13.1983 12.025H12.6988V12.7765Z" fill="black"/>
  </g>
  <defs>
    <clipPath id="clip0_8_15">
      <rect width="16" height="16" fill="white"/>
    </clipPath>
  </defs>
</svg>
