<?xml version="1.0" encoding="UTF-8"?>
<svg xmlns="http://www.w3.org/2000/svg" xmlns:xlink="http://www.w3.org/1999/xlink" width="16px" height="16px" viewBox="0 0 16 16" version="1.1">
<g id="surface1">
<path style=" stroke:none;fill-rule:nonzero;fill:rgb(0%,0%,0%);fill-opacity:1;" d="M 4.625 14.773438 L 0.375 13.824219 L 0.449219 13.425781 C 0.476562 13.226562 0.851562 12.226562 1.25 11.226562 C 1.675781 10.25 2 9.273438 2 9.101562 L 2 8.800781 L 0.5 8.449219 L 0.5 7.523438 C 0.5 7 0.425781 5.75 0.351562 4.726562 L 0.175781 2.851562 L 3.25 2.125 L 6.300781 1.398438 L 6.726562 0.824219 L 7.175781 0.273438 L 7.925781 1.023438 L 9.550781 0.625 L 11.175781 0.199219 L 13.273438 1.75 C 14.425781 2.601562 15.476562 3.375 15.574219 3.5 L 15.800781 3.699219 L 14.75 5.625 L 13.675781 7.523438 L 14.300781 8.199219 C 14.625 8.574219 15.074219 9.101562 15.324219 9.398438 L 15.75 9.925781 L 15 10.976562 L 14.226562 12.023438 L 13.476562 11.875 L 12.75 11.699219 L 12.75 12.726562 L 11.949219 12.800781 L 11.125 12.875 L 10.375 14.300781 L 9.625 15.75 L 9.25 15.726562 C 9.050781 15.699219 6.976562 15.273438 4.625 14.773438 Z M 4.625 14.773438 "/>
<path style=" stroke:none;fill-rule:nonzero;fill:rgb(95.294118%,68.235294%,0%);fill-opacity:1;" d="M 4.625 14.773438 L 0.375 13.824219 L 0.449219 13.425781 C 0.476562 13.226562 0.851562 12.226562 1.25 11.226562 C 1.675781 10.25 2 9.273438 2 9.101562 L 2 8.800781 L 0.5 8.449219 L 0.5 7.523438 C 0.5 7 0.425781 5.75 0.351562 4.726562 L 0.175781 2.851562 L 3.25 2.125 L 6.300781 1.398438 L 6.726562 0.824219 L 7.175781 0.273438 L 7.925781 1.023438 L 9.550781 0.625 L 11.175781 0.199219 L 13.273438 1.75 C 14.425781 2.601562 15.476562 3.375 15.574219 3.5 L 15.800781 3.699219 L 14.75 5.601562 L 13.699219 7.5 L 14.726562 8.675781 L 15.726562 9.851562 L 15.300781 10.574219 C 15.074219 10.949219 14.675781 11.449219 14.449219 11.675781 L 14.023438 12.050781 L 13.523438 11.875 L 13 11.726562 L 13 3 L 3 3 L 3 13 L 11 13 L 9.648438 15.75 L 9.25 15.726562 C 9.050781 15.699219 6.976562 15.273438 4.625 14.773438 Z M 4.625 14.773438 "/>
<path style=" stroke:none;fill-rule:nonzero;fill:rgb(100%,77.647059%,20.784314%);fill-opacity:1;" d="M 4.625 14.773438 L 0.375 13.824219 L 0.449219 13.425781 C 0.476562 13.226562 0.851562 12.226562 1.25 11.226562 C 1.675781 10.25 2 9.273438 2 9.101562 L 2 8.800781 L 0.5 8.449219 L 1.699219 6.925781 L 2.875 5.375 L 2.949219 9.199219 L 3.023438 13 L 11 13 L 9.648438 15.75 L 9.25 15.726562 C 9.050781 15.699219 6.976562 15.273438 4.625 14.773438 Z M 4.625 14.773438 "/>
<path style=" stroke:none;fill-rule:nonzero;fill:rgb(100%,77.647059%,20.784314%);fill-opacity:1;" d="M 15.5 9.875 C 15.5 9.800781 15.550781 9.75 15.625 9.75 C 15.699219 9.75 15.75 9.800781 15.75 9.875 C 15.75 9.949219 15.699219 10 15.625 10 C 15.550781 10 15.5 9.949219 15.5 9.875 Z M 15.5 9.875 "/>
<path style=" stroke:none;fill-rule:nonzero;fill:rgb(100%,77.647059%,20.784314%);fill-opacity:1;" d="M 14.125 8.25 L 13.675781 7.75 L 13.324219 8 L 13.148438 7.050781 C 13.074219 6.550781 13 5.425781 13 4.601562 L 13 3.050781 L 8.199219 2.949219 L 3.375 2.851562 L 2.925781 2.601562 L 2.449219 2.324219 L 3.824219 2.449219 L 5.175781 2.550781 L 5.324219 2.175781 L 5.476562 1.773438 L 4.851562 2 C 4.5 2.148438 3.976562 2.25 3.675781 2.226562 L 3.125 2.199219 L 4.699219 1.773438 L 6.300781 1.375 L 6.75 0.824219 L 7.175781 0.273438 L 7.925781 1.023438 L 9.550781 0.625 L 11.175781 0.199219 L 13.273438 1.75 C 14.425781 2.601562 15.476562 3.375 15.574219 3.5 L 15.800781 3.699219 L 14.75 5.601562 L 13.699219 7.523438 L 14.273438 8.148438 C 14.574219 8.476562 14.773438 8.75 14.699219 8.75 C 14.625 8.75 14.375 8.523438 14.125 8.25 Z M 14.125 8.25 "/>
<path style=" stroke:none;fill-rule:nonzero;fill:rgb(100%,77.647059%,20.784314%);fill-opacity:1;" d="M 1.5 2.625 C 1.5 2.550781 1.550781 2.5 1.625 2.5 C 1.699219 2.5 1.75 2.550781 1.75 2.625 C 1.75 2.699219 1.699219 2.75 1.625 2.75 C 1.550781 2.75 1.5 2.699219 1.5 2.625 Z M 1.5 2.625 "/>
<path style=" stroke:none;fill-rule:nonzero;fill:rgb(100%,81.568627%,32.941176%);fill-opacity:1;" d="M 4.625 14.773438 L 0.375 13.824219 L 0.449219 13.425781 C 0.476562 13.226562 0.851562 12.226562 1.25 11.226562 C 1.675781 10.25 2 9.273438 2 9.101562 L 2 8.800781 L 1.226562 8.625 L 0.425781 8.449219 L 0.648438 8.273438 C 0.773438 8.199219 1.324219 7.523438 1.875 6.800781 L 2.875 5.476562 L 2.949219 9.226562 L 3.023438 13 L 11 13 L 9.648438 15.75 L 9.25 15.726562 C 9.050781 15.699219 6.976562 15.273438 4.625 14.773438 Z M 4.625 14.773438 "/>
<path style=" stroke:none;fill-rule:nonzero;fill:rgb(100%,81.568627%,32.941176%);fill-opacity:1;" d="M 13.398438 6.851562 L 12.949219 6.425781 L 13.050781 4.726562 L 13.125 3 L 12 2.875 C 10.226562 2.625 10.050781 2.550781 11.148438 2.523438 L 12.175781 2.5 L 12.148438 1.824219 L 12.125 1.125 L 11.25 0.699219 L 10.375 0.25 L 11.226562 0.25 L 13.5 1.898438 C 14.726562 2.824219 15.75 3.648438 15.75 3.726562 C 15.726562 3.800781 15.300781 4.648438 14.773438 5.574219 L 13.824219 7.273438 Z M 12.75 2.375 C 12.75 2.300781 12.699219 2.25 12.625 2.25 C 12.550781 2.25 12.5 2.300781 12.5 2.375 C 12.5 2.449219 12.550781 2.5 12.625 2.5 C 12.699219 2.5 12.75 2.449219 12.75 2.375 Z M 12.75 2.375 "/>
<path style=" stroke:none;fill-rule:nonzero;fill:rgb(100%,81.568627%,32.941176%);fill-opacity:1;" d="M 5 2.800781 C 5 2.699219 5.5 2.101562 6.101562 1.476562 L 7.199219 0.324219 L 8.476562 1.425781 C 9.175781 2.050781 9.75 2.648438 9.75 2.773438 L 9.75 3 L 5 3 Z M 5 2.800781 "/>
<path style=" stroke:none;fill-rule:nonzero;fill:rgb(100%,81.568627%,32.941176%);fill-opacity:1;" d="M 8.574219 0.824219 L 8.75 0.675781 L 8.925781 0.824219 L 9.074219 1 L 8.425781 1 Z M 8.574219 0.824219 "/>
<path style=" stroke:none;fill-rule:nonzero;fill:rgb(100%,81.568627%,32.941176%);fill-opacity:1;" d="M 9.699219 0.574219 L 10.023438 0.449219 L 10.324219 0.75 L 9.851562 0.726562 L 9.375 0.699219 Z M 9.699219 0.574219 "/>
<path style=" stroke:none;fill-rule:nonzero;fill:rgb(100%,94.117647%,78.431373%);fill-opacity:1;" d="M 2.5 6.226562 L 2.800781 5.699219 L 2.925781 5.851562 L 3.050781 5.976562 L 2.925781 6.375 L 2.773438 6.75 L 2.226562 6.75 Z M 2.5 6.226562 "/>
<path style=" stroke:none;fill-rule:nonzero;fill:rgb(100%,94.117647%,78.431373%);fill-opacity:1;" d="M 5.273438 2.574219 C 5.476562 2.324219 6 1.699219 6.425781 1.199219 L 7.199219 0.273438 L 8.351562 1.449219 C 8.976562 2.074219 9.5 2.699219 9.5 2.800781 L 9.5 3 L 4.925781 3 Z M 5.273438 2.574219 "/>
<path style=" stroke:none;fill-rule:nonzero;fill:rgb(100%,100%,100%);fill-opacity:1;" d="M 4.050781 11.476562 L 4.148438 11.199219 L 7.601562 11.199219 L 7.699219 11.476562 L 7.800781 11.75 L 3.949219 11.75 Z M 4.050781 11.476562 "/>
<path style=" stroke:none;fill-rule:nonzero;fill:rgb(100%,100%,100%);fill-opacity:1;" d="M 3.75 6.976562 C 3.75 6.824219 4.101562 6.273438 4.5 5.75 C 4.925781 5.226562 5.25 4.726562 5.25 4.648438 L 5.25 4.5 L 3.75 4.5 L 3.75 4 L 6.25 4 L 6.25 4.324219 C 6.25 4.476562 5.898438 5.074219 5.476562 5.625 L 4.726562 6.625 L 5.476562 6.699219 L 6.25 6.773438 L 6.25 7.25 L 3.75 7.25 Z M 3.75 6.976562 "/>
<path style=" stroke:none;fill-rule:nonzero;fill:rgb(100%,100%,100%);fill-opacity:1;" d="M 6.5 6.949219 C 6.5 6.773438 6.851562 6.175781 7.273438 5.625 L 8.023438 4.625 L 7.273438 4.550781 L 6.5 4.476562 L 6.5 4 L 9 4 L 9 4.199219 C 9 4.324219 8.675781 4.898438 8.25 5.449219 C 7.851562 6.023438 7.5 6.550781 7.5 6.625 C 7.5 6.699219 7.851562 6.75 8.25 6.75 L 9 6.75 L 9 7.25 L 6.5 7.25 Z M 6.5 6.949219 "/>
</g>
</svg>
