<?xml version="1.0" encoding="UTF-8"?>
<svg xmlns="http://www.w3.org/2000/svg" xmlns:xlink="http://www.w3.org/1999/xlink" width="64px" height="64px" viewBox="0 0 64 64" version="1.1">
<g id="surface1">
<path style=" stroke:none;fill-rule:nonzero;fill:rgb(0%,0%,0%);fill-opacity:1;" d="M 18.5 59.09375 L 1.5 55.296875 L 1.796875 53.703125 C 1.90625 52.90625 3.40625 48.90625 5 44.90625 C 6.703125 41 8 37.09375 8 36.40625 L 8 35.203125 L 2 33.796875 L 2 30.09375 C 2 28 1.703125 23 1.40625 18.90625 L 0.703125 11.40625 L 13 8.5 L 25.203125 5.59375 L 26.90625 3.296875 L 28.703125 1.09375 L 31.703125 4.09375 L 38.203125 2.5 L 44.703125 0.796875 L 53.09375 7 C 57.703125 10.40625 61.90625 13.5 62.296875 14 L 63.203125 14.796875 L 59 22.5 L 54.703125 30.09375 L 57.203125 32.796875 C 58.5 34.296875 60.296875 36.40625 61.296875 37.59375 L 63 39.703125 L 60 43.90625 L 56.90625 48.09375 L 53.90625 47.5 L 51 46.796875 L 51 50.90625 L 47.796875 51.203125 L 44.5 51.5 L 41.5 57.203125 L 38.5 63 L 37 62.90625 C 36.203125 62.796875 27.90625 61.09375 18.5 59.09375 Z M 18.5 59.09375 "/>
<path style=" stroke:none;fill-rule:nonzero;fill:rgb(95.294118%,68.235294%,0%);fill-opacity:1;" d="M 18.5 59.09375 L 1.5 55.296875 L 1.796875 53.703125 C 1.90625 52.90625 3.40625 48.90625 5 44.90625 C 6.703125 41 8 37.09375 8 36.40625 L 8 35.203125 L 2 33.796875 L 2 30.09375 C 2 28 1.703125 23 1.40625 18.90625 L 0.703125 11.40625 L 13 8.5 L 25.203125 5.59375 L 26.90625 3.296875 L 28.703125 1.09375 L 31.703125 4.09375 L 38.203125 2.5 L 44.703125 0.796875 L 53.09375 7 C 57.703125 10.40625 61.90625 13.5 62.296875 14 L 63.203125 14.796875 L 59 22.40625 L 54.796875 30 L 58.90625 34.703125 L 62.90625 39.40625 L 61.203125 42.296875 C 60.296875 43.796875 58.703125 45.796875 57.796875 46.703125 L 56.09375 48.203125 L 54.09375 47.5 L 52 46.90625 L 52 12 L 12 12 L 12 52 L 44 52 L 38.59375 63 L 37 62.90625 C 36.203125 62.796875 27.90625 61.09375 18.5 59.09375 Z M 18.5 59.09375 "/>
<path style=" stroke:none;fill-rule:nonzero;fill:rgb(100%,77.647059%,20.784314%);fill-opacity:1;" d="M 18.5 59.09375 L 1.5 55.296875 L 1.796875 53.703125 C 1.90625 52.90625 3.40625 48.90625 5 44.90625 C 6.703125 41 8 37.09375 8 36.40625 L 8 35.203125 L 2 33.796875 L 6.796875 27.703125 L 11.5 21.5 L 11.796875 36.796875 L 12.09375 52 L 44 52 L 38.59375 63 L 37 62.90625 C 36.203125 62.796875 27.90625 61.09375 18.5 59.09375 Z M 18.5 59.09375 "/>
<path style=" stroke:none;fill-rule:nonzero;fill:rgb(100%,77.647059%,20.784314%);fill-opacity:1;" d="M 62 39.5 C 62 39.203125 62.203125 39 62.5 39 C 62.796875 39 63 39.203125 63 39.5 C 63 39.796875 62.796875 40 62.5 40 C 62.203125 40 62 39.796875 62 39.5 Z M 62 39.5 "/>
<path style=" stroke:none;fill-rule:nonzero;fill:rgb(100%,77.647059%,20.784314%);fill-opacity:1;" d="M 56.5 33 L 54.703125 31 L 53.296875 32 L 52.59375 28.203125 C 52.296875 26.203125 52 21.703125 52 18.40625 L 52 12.203125 L 32.796875 11.796875 L 13.5 11.40625 L 11.703125 10.40625 L 9.796875 9.296875 L 15.296875 9.796875 L 20.703125 10.203125 L 21.296875 8.703125 L 21.90625 7.09375 L 19.40625 8 C 18 8.59375 15.90625 9 14.703125 8.90625 L 12.5 8.796875 L 18.796875 7.09375 L 25.203125 5.5 L 27 3.296875 L 28.703125 1.09375 L 31.703125 4.09375 L 38.203125 2.5 L 44.703125 0.796875 L 53.09375 7 C 57.703125 10.40625 61.90625 13.5 62.296875 14 L 63.203125 14.796875 L 59 22.40625 L 54.796875 30.09375 L 57.09375 32.59375 C 58.296875 33.90625 59.09375 35 58.796875 35 C 58.5 35 57.5 34.09375 56.5 33 Z M 56.5 33 "/>
<path style=" stroke:none;fill-rule:nonzero;fill:rgb(100%,77.647059%,20.784314%);fill-opacity:1;" d="M 6 10.5 C 6 10.203125 6.203125 10 6.5 10 C 6.796875 10 7 10.203125 7 10.5 C 7 10.796875 6.796875 11 6.5 11 C 6.203125 11 6 10.796875 6 10.5 Z M 6 10.5 "/>
<path style=" stroke:none;fill-rule:nonzero;fill:rgb(100%,81.568627%,32.941176%);fill-opacity:1;" d="M 18.5 59.09375 L 1.5 55.296875 L 1.796875 53.703125 C 1.90625 52.90625 3.40625 48.90625 5 44.90625 C 6.703125 41 8 37.09375 8 36.40625 L 8 35.203125 L 4.90625 34.5 L 1.703125 33.796875 L 2.59375 33.09375 C 3.09375 32.796875 5.296875 30.09375 7.5 27.203125 L 11.5 21.90625 L 11.796875 36.90625 L 12.09375 52 L 44 52 L 38.59375 63 L 37 62.90625 C 36.203125 62.796875 27.90625 61.09375 18.5 59.09375 Z M 18.5 59.09375 "/>
<path style=" stroke:none;fill-rule:nonzero;fill:rgb(100%,81.568627%,32.941176%);fill-opacity:1;" d="M 53.59375 27.40625 L 51.796875 25.703125 L 52.203125 18.90625 L 52.5 12 L 48 11.5 C 40.90625 10.5 40.203125 10.203125 44.59375 10.09375 L 48.703125 10 L 48.59375 7.296875 L 48.5 4.5 L 45 2.796875 L 41.5 1 L 44.90625 1 L 54 7.59375 C 58.90625 11.296875 63 14.59375 63 14.90625 C 62.90625 15.203125 61.203125 18.59375 59.09375 22.296875 L 55.296875 29.09375 Z M 51 9.5 C 51 9.203125 50.796875 9 50.5 9 C 50.203125 9 50 9.203125 50 9.5 C 50 9.796875 50.203125 10 50.5 10 C 50.796875 10 51 9.796875 51 9.5 Z M 51 9.5 "/>
<path style=" stroke:none;fill-rule:nonzero;fill:rgb(100%,81.568627%,32.941176%);fill-opacity:1;" d="M 20 11.203125 C 20 10.796875 22 8.40625 24.40625 5.90625 L 28.796875 1.296875 L 33.90625 5.703125 C 36.703125 8.203125 39 10.59375 39 11.09375 L 39 12 L 20 12 Z M 20 11.203125 "/>
<path style=" stroke:none;fill-rule:nonzero;fill:rgb(100%,81.568627%,32.941176%);fill-opacity:1;" d="M 34.296875 3.296875 L 35 2.703125 L 35.703125 3.296875 L 36.296875 4 L 33.703125 4 Z M 34.296875 3.296875 "/>
<path style=" stroke:none;fill-rule:nonzero;fill:rgb(100%,81.568627%,32.941176%);fill-opacity:1;" d="M 38.796875 2.296875 L 40.09375 1.796875 L 41.296875 3 L 39.40625 2.90625 L 37.5 2.796875 Z M 38.796875 2.296875 "/>
<path style=" stroke:none;fill-rule:nonzero;fill:rgb(100%,94.117647%,78.431373%);fill-opacity:1;" d="M 10 24.90625 L 11.203125 22.796875 L 11.703125 23.40625 L 12.203125 23.90625 L 11.703125 25.5 L 11.09375 27 L 8.90625 27 Z M 10 24.90625 "/>
<path style=" stroke:none;fill-rule:nonzero;fill:rgb(100%,94.117647%,78.431373%);fill-opacity:1;" d="M 21.09375 10.296875 C 21.90625 9.296875 24 6.796875 25.703125 4.796875 L 28.796875 1.09375 L 33.40625 5.796875 C 35.90625 8.296875 38 10.796875 38 11.203125 L 38 12 L 19.703125 12 Z M 21.09375 10.296875 "/>
<path style=" stroke:none;fill-rule:nonzero;fill:rgb(100%,100%,100%);fill-opacity:1;" d="M 16.203125 45.90625 L 16.59375 44.796875 L 30.40625 44.796875 L 30.796875 45.90625 L 31.203125 47 L 15.796875 47 Z M 16.203125 45.90625 "/>
<path style=" stroke:none;fill-rule:nonzero;fill:rgb(100%,100%,100%);fill-opacity:1;" d="M 15 27.90625 C 15 27.296875 16.40625 25.09375 18 23 C 19.703125 20.90625 21 18.90625 21 18.59375 L 21 18 L 15 18 L 15 16 L 25 16 L 25 17.296875 C 25 17.90625 23.59375 20.296875 21.90625 22.5 L 18.90625 26.5 L 21.90625 26.796875 L 25 27.09375 L 25 29 L 15 29 Z M 15 27.90625 "/>
<path style=" stroke:none;fill-rule:nonzero;fill:rgb(100%,100%,100%);fill-opacity:1;" d="M 26 27.796875 C 26 27.09375 27.40625 24.703125 29.09375 22.5 L 32.09375 18.5 L 29.09375 18.203125 L 26 17.90625 L 26 16 L 36 16 L 36 16.796875 C 36 17.296875 34.703125 19.59375 33 21.796875 C 31.40625 24.09375 30 26.203125 30 26.5 C 30 26.796875 31.40625 27 33 27 L 36 27 L 36 29 L 26 29 Z M 26 27.796875 "/>
</g>
</svg>
