<svg width="64" height="64" viewBox="0 0 64 64" fill="none" xmlns="http://www.w3.org/2000/svg">
  <g clip-path="url(#clip0_8_6)">
    <rect x="-0.0913086" y="53.6878" width="57.964" height="52.4523" rx="5" transform="rotate(-76 -0.0913086 53.6878)" fill="url(#paint0_linear_8_6)"/>
    <rect x="3.79089" y="38.6019" width="84.3705" height="15.3093" rx="5" transform="rotate(15 3.79089 38.6019)" fill="url(#paint1_linear_8_6)"/>
    <rect x="-16.5979" y="-11.2262" width="84.3705" height="18.1153" rx="5" transform="rotate(15 -16.5979 -11.2262)" fill="url(#paint2_linear_8_6)"/>
    <rect x="12" y="12" width="40" height="40" fill="black"/>
    <path d="M16.4457 31.9666V30.2784L24.9723 18.8668L25.2928 19.2301H17.0013V17.0076H27.8359V18.6745L19.352 30.1074L19.0101 29.7441H28.0709V31.9666H16.4457ZM28.609 31.9666V30.2784L37.1357 18.8668L37.4562 19.2301H29.1646V17.0076H39.9992V18.6745L31.5153 30.1074L31.1734 29.7441H40.2343V31.9666H28.609Z" fill="white"/>
    <rect x="17" y="44" width="16" height="3" fill="white"/>
    <rect x="16" y="40" width="48" height="24" rx="5" fill="#FDB60D"/>
    <path d="M25.0483 57V47.025H32.0023V49.0912H27.3996V54.9337H32.1448V57H25.0483ZM26.1883 52.9102V50.9437H31.3611V52.9102H26.1883ZM34.6034 57L38.5506 47.025H40.6026L44.5214 57H42.0704L40.1894 51.9412C40.1134 51.7417 40.0374 51.528 39.9614 51.3C39.8854 51.072 39.8094 50.8392 39.7334 50.6017C39.6574 50.3547 39.5814 50.1172 39.5054 49.8892C39.4389 49.6517 39.3819 49.4332 39.3344 49.2337L39.7619 49.2195C39.7049 49.457 39.6384 49.6897 39.5624 49.9177C39.4959 50.1457 39.4246 50.3737 39.3486 50.6017C39.2821 50.8202 39.2061 51.0435 39.1206 51.2715C39.0351 51.49 38.9544 51.718 38.8784 51.9555L36.9974 57H34.6034ZM36.4844 55.0905L37.2396 53.2665H41.8281L42.5691 55.0905H36.4844ZM47.4047 57V47.025H51.7082C52.3352 47.025 52.8909 47.1675 53.3754 47.4525C53.8694 47.7375 54.2589 48.127 54.5439 48.621C54.8384 49.115 54.9857 49.6707 54.9857 50.2882C54.9857 50.9342 54.8384 51.5137 54.5439 52.0267C54.2589 52.5302 53.8694 52.9292 53.3754 53.2237C52.8909 53.5182 52.3352 53.6655 51.7082 53.6655H49.8272V57H47.4047ZM49.7844 51.5422H51.3662C51.5752 51.5422 51.7652 51.49 51.9362 51.3855C52.1072 51.281 52.2449 51.1385 52.3494 50.958C52.4539 50.7775 52.5062 50.5685 52.5062 50.331C52.5062 50.084 52.4539 49.875 52.3494 49.704C52.2449 49.533 52.1072 49.4 51.9362 49.305C51.7652 49.21 51.5752 49.1625 51.3662 49.1625H49.7844V51.5422Z" fill="black"/>
  </g>
  <defs>
    <linearGradient id="paint0_linear_8_6" x1="9.00253" y1="1.53355" x2="88.5238" y2="13.0144" gradientUnits="userSpaceOnUse">
      <stop stop-color="#F3AE00"/>
      <stop offset="1" stop-color="#FFF0C8"/>
    </linearGradient>
    <linearGradient id="paint1_linear_8_6" x1="17.0276" y1="23.3796" x2="94.8473" y2="79.4095" gradientUnits="userSpaceOnUse">
      <stop stop-color="#F3AE00"/>
      <stop offset="1" stop-color="#FFF0C8"/>
    </linearGradient>
    <linearGradient id="paint2_linear_8_6" x1="-3.36121" y1="-29.2387" x2="82.8728" y2="23.2322" gradientUnits="userSpaceOnUse">
      <stop stop-color="#F3AE00"/>
      <stop offset="1" stop-color="#FFF0C8"/>
    </linearGradient>
    <clipPath id="clip0_8_6">
      <rect width="64" height="64" fill="white"/>
    </clipPath>
  </defs>
</svg>
